HIERARCHY
ROOT newVegas:Hips
{
	OFFSET 0.000000 96.479958 0.000000
	CHANNELS 6 Xposition Yposition Zposition Xrotation Yrotation Zrotation
	JOINT newVegas:Pelvis
	{
		OFFSET 0.000000 0.000000 0.000000
		CHANNELS 3 Xrotation Yrotation Zrotation
		JOINT newVegas:LeftUpLeg
		{
			OFFSET 18.735201 -5.666702 -4.541200
			CHANNELS 3 Xrotation Yrotation Zrotation
			JOINT newVegas:LeftLeg
			{
				OFFSET -0.021200 -31.938179 0.493100
				CHANNELS 3 Xrotation Yrotation Zrotation
				JOINT newVegas:LeftFoot
				{
					OFFSET 0.021200 -31.938179 -4.336299
					CHANNELS 3 Xrotation Yrotation Zrotation
					JOINT newVegas:LeftToeBase
					{
						OFFSET 0.943001 -26.722000 15.023500
						CHANNELS 3 Xrotation Yrotation Zrotation
						End Site
						{
							OFFSET 0.000000 30.670183 0.000000
						}
					}
				}
				JOINT newVegas:Left_PantLeg
				{
					OFFSET 0.663870 -9.044666 -1.108900
					CHANNELS 3 Xrotation Yrotation Zrotation
					End Site
					{
						OFFSET 1.415995 20.635357 0.000000
					}
				}
			}
		}
		JOINT newVegas:RightUpLeg
		{
			OFFSET -18.735201 -5.666702 -4.541200
			CHANNELS 3 Xrotation Yrotation Zrotation
			JOINT newVegas:RightLeg
			{
				OFFSET 0.018946 -31.938133 0.493100
				CHANNELS 3 Xrotation Yrotation Zrotation
				JOINT newVegas:RightFoot
				{
					OFFSET -0.018946 -31.938126 -4.336299
					CHANNELS 3 Xrotation Yrotation Zrotation
					JOINT newVegas:RightToeBase
					{
						OFFSET -0.943001 -26.722004 15.023500
						CHANNELS 3 Xrotation Yrotation Zrotation
						End Site
						{
							OFFSET 0.000000 30.670187 0.000000
						}
					}
				}
				JOINT newVegas:Right_PantLeg
				{
					OFFSET -0.661674 -9.044716 -1.108900
					CHANNELS 3 Xrotation Yrotation Zrotation
					End Site
					{
						OFFSET -1.415958 20.635269 0.000000
					}
				}
			}
		}
	}
	JOINT newVegas:Spine
	{
		OFFSET 0.000000 10.199997 -0.299500
		CHANNELS 3 Xrotation Yrotation Zrotation
		JOINT newVegas:Spine1
		{
			OFFSET 0.000000 11.900002 -1.516600
			CHANNELS 3 Xrotation Yrotation Zrotation
			JOINT newVegas:Spine2
			{
				OFFSET 0.000000 13.600006 -2.842500
				CHANNELS 3 Xrotation Yrotation Zrotation
				JOINT newVegas:Neck
				{
					OFFSET 0.000000 9.624100 -2.890100
					CHANNELS 3 Xrotation Yrotation Zrotation
					JOINT newVegas:Head
					{
						OFFSET 0.000000 14.068802 -1.351900
						CHANNELS 3 Xrotation Yrotation Zrotation
						JOINT newVegas:Hair_Back
						{
							OFFSET 0.000000 3.231903 -17.524799
							CHANNELS 3 Xrotation Yrotation Zrotation
							End Site
							{
								OFFSET 0.000000 19.849884 0.000000
							}
						}
						JOINT newVegas:Hair_Front
						{
							OFFSET 0.000000 31.260406 4.573800
							CHANNELS 3 Xrotation Yrotation Zrotation
							JOINT newVegas:Hair_Front1
							{
								OFFSET 0.000000 2.284103 11.993300
								CHANNELS 3 Xrotation Yrotation Zrotation
								JOINT newVegas:Hair_Front2
								{
									OFFSET 0.000000 2.284103 11.993300
									CHANNELS 3 Xrotation Yrotation Zrotation
									End Site
									{
										OFFSET 0.000000 12.208862 0.000000
									}
								}
							}
						}
						JOINT newVegas:Jowel
						{
							OFFSET 0.000000 -7.458206 6.864100
							CHANNELS 3 Xrotation Yrotation Zrotation
							End Site
							{
								OFFSET 0.000000 19.849884 0.000000
							}
						}
					}
				}
				JOINT newVegas:LeftShoulder
				{
					OFFSET 15.263000 10.923401 -0.547700
					CHANNELS 3 Xrotation Yrotation Zrotation
					JOINT newVegas:LeftArm
					{
						OFFSET 25.438599 -2.830597 -13.032500
						CHANNELS 3 Xrotation Yrotation Zrotation
						JOINT newVegas:LeftForeArm
						{
							OFFSET 29.960503 0.000000 0.000000
							CHANNELS 3 Xrotation Yrotation Zrotation
							JOINT newVegas:LeftHand
							{
								OFFSET 27.849251 0.000000 0.000000
								CHANNELS 3 Xrotation Yrotation Zrotation
								JOINT newVegas:LeftHandThumb1
								{
									OFFSET 4.487587 -3.305161 6.305391
									CHANNELS 3 Xrotation Yrotation Zrotation
									JOINT newVegas:LeftHandThumb2
									{
										OFFSET 5.480453 -3.164139 3.164143
										CHANNELS 3 Xrotation Yrotation Zrotation
										JOINT newVegas:LeftHandThumb3
										{
											OFFSET 5.159721 -2.978973 2.978967
											CHANNELS 3 Xrotation Yrotation Zrotation
											End Site
											{
												OFFSET 2.494507 5.926697 1.738678
											}
										}
									}
								}
								JOINT newVegas:LeftHandIndex1
								{
									OFFSET 18.578728 -0.527832 5.208049
									CHANNELS 3 Xrotation Yrotation Zrotation
									JOINT newVegas:LeftHandIndex2
									{
										OFFSET 3.192009 0.000000 0.000000
										CHANNELS 3 Xrotation Yrotation Zrotation
										JOINT newVegas:LeftHandIndex3
										{
											OFFSET 3.835129 0.000000 0.000000
											CHANNELS 3 Xrotation Yrotation Zrotation
											End Site
											{
												OFFSET -0.034599 3.816971 0.371180
											}
										}
									}
								}
								JOINT newVegas:LeftHandMiddle1
								{
									OFFSET 18.476105 0.000000 0.000000
									CHANNELS 3 Xrotation Yrotation Zrotation
									JOINT newVegas:LeftHandMiddle2
									{
										OFFSET 3.324875 0.000000 0.000000
										CHANNELS 3 Xrotation Yrotation Zrotation
										JOINT newVegas:LeftHandMiddle3
										{
											OFFSET 4.596550 0.000000 0.000000
											CHANNELS 3 Xrotation Yrotation Zrotation
											End Site
											{
												OFFSET 0.057701 4.578827 0.399218
											}
										}
									}
								}
								JOINT newVegas:LeftHandRing1
								{
									OFFSET 17.732719 0.121887 -4.201567
									CHANNELS 3 Xrotation Yrotation Zrotation
									JOINT newVegas:LeftHandRing2
									{
										OFFSET 2.733170 0.000000 0.000000
										CHANNELS 3 Xrotation Yrotation Zrotation
										JOINT newVegas:LeftHandRing3
										{
											OFFSET 3.178268 0.000000 0.000000
											CHANNELS 3 Xrotation Yrotation Zrotation
											End Site
											{
												OFFSET 0.119102 3.170624 0.185394
											}
										}
									}
								}
								JOINT newVegas:LeftHandPinky1
								{
									OFFSET 15.989624 -0.606689 -7.535461
									CHANNELS 3 Xrotation Yrotation Zrotation
									JOINT newVegas:LeftHandPinky2
									{
										OFFSET 2.538986 0.000000 0.000000
										CHANNELS 3 Xrotation Yrotation Zrotation
										JOINT newVegas:LeftHandPinky3
										{
											OFFSET 2.593102 0.000000 0.000000
											CHANNELS 3 Xrotation Yrotation Zrotation
											End Site
											{
												OFFSET -0.150902 2.584198 0.152708
											}
										}
									}
								}
							}
							JOINT newVegas:Left_Sleeve
							{
								OFFSET 0.267448 -0.649796 0.577675
								CHANNELS 3 Xrotation Yrotation Zrotation
								End Site
								{
									OFFSET 0.000000 15.991241 0.000000
								}
							}
							JOINT newVegas:Left_CapeC
							{
								OFFSET 15.715958 -8.608795 -6.935905
								CHANNELS 3 Xrotation Yrotation Zrotation
								JOINT newVegas:Left_CapeC1
								{
									OFFSET 0.000000 -8.688499 0.000000
									CHANNELS 3 Xrotation Yrotation Zrotation
									End Site
									{
										OFFSET 0.000000 8.688499 0.000000
									}
								}
							}
						}
						JOINT newVegas:Left_CapeB
						{
							OFFSET 26.118385 -8.608795 -7.079235
							CHANNELS 3 Xrotation Yrotation Zrotation
							JOINT newVegas:Left_CapeB1
							{
								OFFSET 0.000000 -8.688499 0.000000
								CHANNELS 3 Xrotation Yrotation Zrotation
								End Site
								{
									OFFSET 0.000000 8.688499 0.000000
								}
							}
						}
						JOINT newVegas:Left_CapeA
						{
							OFFSET 5.115639 -8.608795 -10.395809
							CHANNELS 3 Xrotation Yrotation Zrotation
							JOINT newVegas:Left_CapeA1
							{
								OFFSET 0.000000 -8.688499 0.000000
								CHANNELS 3 Xrotation Yrotation Zrotation
								End Site
								{
									OFFSET 0.000000 8.688499 0.000000
								}
							}
						}
					}
				}
				JOINT newVegas:RightShoulder
				{
					OFFSET -15.263000 10.923401 -0.547700
					CHANNELS 3 Xrotation Yrotation Zrotation
					JOINT newVegas:RightArm
					{
						OFFSET -25.438599 -2.830597 -13.032500
						CHANNELS 3 Xrotation Yrotation Zrotation
						JOINT newVegas:RightForeArm
						{
							OFFSET -29.960503 0.000000 0.000000
							CHANNELS 3 Xrotation Yrotation Zrotation
							JOINT newVegas:RightHand
							{
								OFFSET -27.849251 0.000000 0.000000
								CHANNELS 3 Xrotation Yrotation Zrotation
								JOINT newVegas:RightHandThumb1
								{
									OFFSET -4.487587 -3.305161 6.305391
									CHANNELS 3 Xrotation Yrotation Zrotation
									JOINT newVegas:RightHandThumb2
									{
										OFFSET -5.480453 -3.164139 3.164143
										CHANNELS 3 Xrotation Yrotation Zrotation
										JOINT newVegas:RightHandThumb3
										{
											OFFSET -5.159721 -2.978973 2.978967
											CHANNELS 3 Xrotation Yrotation Zrotation
											End Site
											{
												OFFSET -2.494507 5.926697 1.738678
											}
										}
									}
								}
								JOINT newVegas:RightHandIndex1
								{
									OFFSET -18.578728 -0.527832 5.208049
									CHANNELS 3 Xrotation Yrotation Zrotation
									JOINT newVegas:RightHandIndex2
									{
										OFFSET -3.192009 0.000000 0.000000
										CHANNELS 3 Xrotation Yrotation Zrotation
										JOINT newVegas:RightHandIndex3
										{
											OFFSET -3.835129 0.000000 0.000000
											CHANNELS 3 Xrotation Yrotation Zrotation
											End Site
											{
												OFFSET 0.034599 3.816971 0.371180
											}
										}
									}
								}
								JOINT newVegas:RightHandMiddle1
								{
									OFFSET -18.476105 0.000000 0.000000
									CHANNELS 3 Xrotation Yrotation Zrotation
									JOINT newVegas:RightHandMiddle2
									{
										OFFSET -3.324875 0.000000 0.000000
										CHANNELS 3 Xrotation Yrotation Zrotation
										JOINT newVegas:RightHandMiddle3
										{
											OFFSET -4.596550 0.000000 0.000000
											CHANNELS 3 Xrotation Yrotation Zrotation
											End Site
											{
												OFFSET -0.057701 4.578827 0.399218
											}
										}
									}
								}
								JOINT newVegas:RightHandRing1
								{
									OFFSET -17.732719 0.121887 -4.201567
									CHANNELS 3 Xrotation Yrotation Zrotation
									JOINT newVegas:RightHandRing2
									{
										OFFSET -2.733170 0.000000 0.000000
										CHANNELS 3 Xrotation Yrotation Zrotation
										JOINT newVegas:RightHandRing3
										{
											OFFSET -3.178268 0.000000 0.000000
											CHANNELS 3 Xrotation Yrotation Zrotation
											End Site
											{
												OFFSET -0.119102 3.170624 0.185394
											}
										}
									}
								}
								JOINT newVegas:RightHandPinky1
								{
									OFFSET -15.989624 -0.606689 -7.535461
									CHANNELS 3 Xrotation Yrotation Zrotation
									JOINT newVegas:RightHandPinky2
									{
										OFFSET -2.538986 0.000000 0.000000
										CHANNELS 3 Xrotation Yrotation Zrotation
										JOINT newVegas:RightHandPinky3
										{
											OFFSET -2.593102 0.000000 0.000000
											CHANNELS 3 Xrotation Yrotation Zrotation
											End Site
											{
												OFFSET 0.150902 2.584198 0.152708
											}
										}
									}
								}
							}
							JOINT newVegas:Right_CapeC
							{
								OFFSET -15.715958 -8.608795 -6.935905
								CHANNELS 3 Xrotation Yrotation Zrotation
								JOINT newVegas:Right_CapeC1
								{
									OFFSET 0.000000 -8.688499 0.000000
									CHANNELS 3 Xrotation Yrotation Zrotation
									End Site
									{
										OFFSET 0.000000 8.688499 0.000000
									}
								}
							}
							JOINT newVegas:Right_Sleeve
							{
								OFFSET -0.267448 -0.649994 0.577675
								CHANNELS 3 Xrotation Yrotation Zrotation
								End Site
								{
									OFFSET 0.000000 15.991302 0.000000
								}
							}
						}
						JOINT newVegas:Right_CapeA
						{
							OFFSET -5.115540 -8.608795 -10.395824
							CHANNELS 3 Xrotation Yrotation Zrotation
							JOINT newVegas:Right_CapeA1
							{
								OFFSET 0.000000 -8.688499 0.000000
								CHANNELS 3 Xrotation Yrotation Zrotation
								End Site
								{
									OFFSET 0.000000 8.688499 0.000000
								}
							}
						}
						JOINT newVegas:Right_CapeB
						{
							OFFSET -26.118187 -8.608795 -7.079266
							CHANNELS 3 Xrotation Yrotation Zrotation
							JOINT newVegas:Right_CapeB1
							{
								OFFSET 0.000000 -8.688499 0.000000
								CHANNELS 3 Xrotation Yrotation Zrotation
								End Site
								{
									OFFSET 0.000000 8.688499 0.000000
								}
							}
						}
					}
				}
				JOINT newVegas:Left_Collar
				{
					OFFSET 18.625099 8.655502 8.828100
					CHANNELS 3 Xrotation Yrotation Zrotation
					JOINT newVegas:Left_Collar1
					{
						OFFSET 14.783401 10.540405 -1.259500
						CHANNELS 3 Xrotation Yrotation Zrotation
						End Site
						{
							OFFSET 0.000000 18.199875 0.000000
						}
					}
				}
				JOINT newVegas:Collar_Back
				{
					OFFSET 0.000000 15.630707 -20.132601
					CHANNELS 3 Xrotation Yrotation Zrotation
					End Site
					{
						OFFSET 0.000000 22.523010 0.000000
					}
				}
				JOINT newVegas:Left_Peck
				{
					OFFSET 17.239599 -5.132599 25.482599
					CHANNELS 3 Xrotation Yrotation Zrotation
					End Site
					{
						OFFSET 0.000000 22.523010 0.000000
					}
				}
				JOINT newVegas:Right_Peck
				{
					OFFSET -17.239599 -5.132202 25.482599
					CHANNELS 3 Xrotation Yrotation Zrotation
					End Site
					{
						OFFSET 0.000000 22.523010 0.000000
					}
				}
				JOINT newVegas:Right_Collar
				{
					OFFSET -18.625099 8.655792 8.828100
					CHANNELS 3 Xrotation Yrotation Zrotation
					JOINT newVegas:Right_Collar1
					{
						OFFSET -14.783401 10.539993 -1.259500
						CHANNELS 3 Xrotation Yrotation Zrotation
						End Site
						{
							OFFSET 0.000000 18.199631 0.000000
						}
					}
				}
			}
		}
		JOINT newVegas:Belly
		{
			OFFSET 0.000000 -6.540398 9.014299
			CHANNELS 3 Xrotation Yrotation Zrotation
			End Site
			{
				OFFSET 0.000000 11.566666 0.000000
			}
		}
	}
	JOINT newVegas:ElvisFacialAnim_Joint
	{
		OFFSET 1.000000 -95.330101 -8.825800
		CHANNELS 3 Xrotation Yrotation Zrotation
		End Site
		{
			OFFSET 0.000000 35.315800 0.000000
		}
	}
}
MOTION
Frames: 4
Frame Time: 0.033333
0.047944 95.253769 4.395893 -3.753879 -5.231924 -3.165256 0.000000 0.000000 0.000000 -14.983613 13.493489 12.527371 20.443026 1.787616 4.633892 -2.582550 1.120113 -9.500988 -0.000000 -0.000000 -0.000000 -0.000000 -0.000001 -0.000000 4.291025 -10.111421 2.818839 5.016269 -9.660821 -3.277628 -4.856815 -1.882942 4.165118 0.000000 0.000000 -0.000000 -0.000000 -0.000001 -0.000000 3.307626 1.517516 2.136597 1.148832 0.327508 1.548558 1.127730 0.354493 1.549294 1.123686 -0.020092 0.092099 1.123682 -0.020093 0.092098 0.000000 0.000000 -0.000000 1.123683 -0.020093 0.092098 1.123757 -0.020092 0.092099 0.000001 -0.000000 -0.000000 0.000000 0.000000 -0.000000 1.043551 -17.457168 -12.317688 3.923839 -19.986614 -69.764850 -0.000011 -1.453242 0.000012 -33.227135 -1.355415 -6.185250 -0.672404 2.158512 4.840378 11.858019 25.414611 17.050100 0.000000 -0.000002 -0.000003 0.009622 -0.964983 -7.590283 0.267893 1.752968 -17.376537 0.000001 0.000000 -0.000001 -0.075089 2.670232 -15.697907 0.268777 1.755772 -17.405245 -0.000001 -0.000000 0.000000 0.138034 3.644726 -21.134811 0.386575 2.094654 -20.910467 0.000001 -0.000002 -0.000003 0.925694 5.556867 -27.127090 0.268788 1.755832 -17.405885 -0.000000 0.000000 0.000001 -0.000001 -0.000000 -0.000000 -0.000001 -0.000000 -0.000000 -0.000001 0.000000 -0.000000 -0.000004 0.000000 -0.000000 -0.000004 0.000000 -0.000000 -0.000004 0.000000 -0.000000 -0.000005 0.000000 -0.000000 1.195125 15.347456 14.707158 13.162746 27.550888 58.780956 0.000003 6.689801 0.000006 -20.174741 -0.523583 6.792856 -1.665513 -0.164649 -4.225911 12.712568 -29.827583 -16.116093 -0.000002 -0.000001 0.000001 0.029943 1.261096 6.836773 0.213722 -1.396011 17.406723 -0.000000 -0.000000 -0.000002 -0.135019 -2.209934 15.002159 0.214291 -1.397859 17.430561 -0.000000 -0.000000 0.000003 0.034616 -3.087365 20.470183 0.308580 -1.668626 20.953065 -0.000003 0.000000 0.000004 0.748492 -4.894102 26.471950 0.214445 -1.398327 17.436727 -0.000002 0.000003 -0.000001 -0.000001 -0.000000 0.000000 -0.000001 -0.000000 0.000000 -0.000001 -0.000000 0.000000 -0.000001 0.000001 -0.000001 -0.000001 0.000000 -0.000001 -0.000001 0.000001 -0.000001 -0.000000 -0.000000 -0.000001 0.000000 -0.000000 0.000000 0.000000 -0.000000 0.000000 0.000000 -0.000000 0.000000 0.000000 -0.000000 0.000000 0.000000 -0.000000 0.000000 0.000000 -0.000000 0.000000 0.000000 -0.000000 0.000000 -0.000000 0.000000 -0.000000 0.000000 0.000000 0.000000 
0.046739 95.250275 4.398866 -3.704727 -5.210213 -3.159430 0.000000 0.000001 0.000000 -15.039341 13.493032 12.527745 20.435919 1.772129 4.633402 -2.570286 1.119505 -9.501908 0.000000 -0.000000 -0.000000 -0.000000 -0.000000 0.000001 4.262538 -10.111813 2.841422 4.999533 -9.673021 -3.278106 -4.863622 -1.880697 4.148647 0.000000 0.000000 0.000000 -0.000000 0.000000 -0.000000 3.307637 1.521674 2.136665 1.148832 0.327509 1.548558 1.127731 0.354492 1.549294 1.123483 -0.020300 0.097437 1.123490 -0.020302 0.097439 0.000000 -0.000000 0.000000 1.123482 -0.020295 0.097438 1.123483 -0.020303 0.097438 0.000001 0.000000 -0.000000 0.000000 -0.000000 0.000000 1.049238 -17.456833 -12.298742 3.935109 -19.999689 -69.747098 -0.000002 -1.499542 -0.000021 -33.178948 -1.365454 -6.183072 -0.672400 2.158508 4.840394 11.859556 25.404586 17.048159 -0.000001 -0.000002 -0.000005 0.009735 -0.970368 -7.579114 0.267590 1.752000 -17.366598 0.000003 0.000000 0.000000 -0.075156 2.668950 -15.685654 0.268385 1.754520 -17.392453 0.000001 0.000000 0.000003 0.137759 3.643506 -21.122686 0.386108 2.093426 -20.897691 -0.000001 0.000001 0.000000 0.930302 5.566091 -27.114015 0.268450 1.754738 -17.394742 0.000000 0.000000 0.000001 0.000000 0.000001 0.000001 0.000000 0.000001 0.000001 -0.000000 0.000001 0.000001 -0.000000 0.000000 -0.000000 0.000000 0.000000 -0.000000 -0.000000 0.000000 -0.000000 -0.000002 0.000000 -0.000000 1.192870 15.347623 14.715682 13.108873 27.526255 58.792376 -0.000007 6.648407 0.000015 -20.227776 -0.333484 6.742088 -1.665520 -0.164645 -4.225908 12.711348 -29.827498 -16.116311 0.000001 -0.000003 -0.000001 0.029956 1.261099 6.836787 0.213709 -1.396008 17.406706 -0.000002 -0.000000 0.000001 -0.135012 -2.209935 15.002176 0.214292 -1.397852 17.430573 -0.000002 -0.000001 -0.000002 0.034621 -3.087364 20.470188 0.308579 -1.668627 20.953060 0.000001 0.000001 0.000001 0.748718 -4.894450 26.476926 0.214590 -1.398798 17.442838 -0.000001 0.000002 -0.000001 0.000004 0.000001 -0.000001 0.000004 0.000000 -0.000000 0.000004 0.000001 -0.000001 0.000002 0.000000 -0.000001 0.000002 0.000000 -0.000001 0.000002 0.000000 -0.000001 0.000002 -0.000000 -0.000001 0.000000 -0.000000 0.000000 0.000000 -0.000000 0.000000 0.000000 -0.000000 0.000000 0.000000 -0.000000 0.000000 0.000000 -0.000000 0.000000 0.000000 -0.000000 0.000000 0.000000 -0.000000 0.000000 -0.000000 -0.000000 0.000000 0.000000 0.000001 0.000000 
0.050808 95.250198 4.408724 -3.658604 -5.176642 -3.153281 -0.000000 -0.000000 0.000000 -15.078778 13.491961 12.528461 20.410535 1.743503 4.631837 -2.553375 1.118478 -9.498006 -0.000000 -0.000000 0.000000 -0.000000 0.000001 0.000001 4.272768 -10.111565 2.858413 4.922356 -9.708492 -3.278347 -4.842617 -1.879606 4.141622 -0.000000 -0.000002 0.000000 -0.000001 0.000003 -0.000001 3.307674 1.534870 2.136857 1.148832 0.327509 1.548557 1.127731 0.354492 1.549294 1.122404 -0.020218 0.095406 1.122409 -0.020218 0.095407 0.000000 0.000000 -0.000000 1.122405 -0.020214 0.095405 1.122404 -0.020222 0.095407 -0.000000 0.000000 0.000000 0.000000 0.000000 -0.000000 1.043198 -17.457205 -12.318866 3.956996 -20.014022 -69.701637 -0.000003 -1.556481 -0.000010 -33.125325 -1.390750 -6.168066 -0.673183 2.148460 4.838361 11.848339 25.374465 17.044604 0.000001 -0.000003 -0.000001 0.009544 -0.990438 -7.546563 0.266695 1.749129 -17.337209 0.000001 0.000000 -0.000001 -0.075347 2.665159 -15.649524 0.267227 1.750826 -17.354647 -0.000001 0.000000 -0.000001 0.141326 3.651200 -21.085928 0.384730 2.089820 -20.859953 -0.000000 -0.000000 -0.000002 0.945933 5.592345 -27.075524 0.267444 1.751532 -17.361822 0.000001 -0.000005 0.000002 0.000000 0.000001 0.000001 0.000000 0.000001 0.000001 -0.000001 0.000001 0.000001 -0.000000 0.000000 0.000000 0.000000 0.000000 -0.000000 -0.000000 0.000000 0.000000 -0.000002 -0.000000 -0.000000 1.199403 15.367622 14.671035 13.025020 27.452783 58.886298 0.000006 6.650780 0.000003 -20.258134 -0.168289 6.715696 -1.665518 -0.164642 -4.225898 12.705312 -29.827057 -16.117377 -0.000003 -0.000002 -0.000001 0.030119 1.259710 6.836688 0.213708 -1.396002 17.406742 -0.000002 0.000001 0.000003 -0.135021 -2.210028 15.003337 0.214295 -1.397855 17.430566 -0.000004 0.000002 0.000001 0.034620 -3.087368 20.470219 0.308582 -1.668622 20.953069 0.000001 0.000001 0.000002 0.749621 -4.895818 26.496819 0.215194 -1.400689 17.467065 -0.000001 0.000002 -0.000004 0.000001 0.000001 0.000000 0.000001 0.000001 0.000000 0.000001 0.000001 0.000000 0.000004 -0.000001 -0.000001 0.000004 0.000000 -0.000000 0.000004 -0.000001 -0.000001 0.000004 -0.000000 -0.000000 -0.000000 -0.000000 0.000000 -0.000000 -0.000000 0.000000 -0.000000 -0.000000 0.000000 -0.000000 -0.000000 0.000000 -0.000000 -0.000000 0.000000 -0.000000 -0.000000 0.000000 -0.000000 -0.000000 0.000000 -0.000000 -0.000001 -0.000000 -0.000000 -0.000000 0.000000 
0.057784 95.250725 4.422405 -3.611894 -5.145997 -3.147208 0.000000 -0.000000 -0.000000 -15.118791 13.491026 12.519586 20.383612 1.709147 4.629217 -2.536057 1.117811 -9.489474 -0.000000 0.000001 -0.000000 -0.000001 -0.000000 0.000000 4.287731 -10.110902 2.863677 4.832930 -9.744172 -3.278276 -4.812203 -1.880016 4.145549 -0.000000 0.000000 0.000000 -0.000001 0.000001 -0.000000 3.307714 1.548229 2.121761 1.148832 0.331243 1.548558 1.127730 0.358513 1.547053 1.121126 -0.025353 0.099970 1.121127 -0.025351 0.099969 -0.000000 0.000000 -0.000000 1.121194 -0.025353 0.099970 1.121129 -0.025348 0.099969 0.000000 -0.000000 0.000000 -0.000000 0.000000 -0.000000 1.046098 -17.457159 -12.309107 3.979855 -20.061941 -69.642521 -0.000014 -1.593961 0.000005 -33.053809 -1.437253 -6.142207 -0.674465 2.131845 4.836229 11.825604 25.325687 17.036790 0.000000 -0.000002 -0.000003 0.009275 -1.023318 -7.493250 0.265224 1.744420 -17.289007 -0.000001 -0.000000 0.000000 -0.075658 2.658945 -15.590322 0.265334 1.744770 -17.292646 0.000000 -0.000000 -0.000005 0.147165 3.663845 -21.025697 0.382480 2.083902 -20.798126 0.000000 -0.000001 -0.000001 0.974209 5.634012 -27.012724 0.265805 1.746266 -17.307995 0.000001 -0.000005 -0.000002 -0.000001 0.000000 -0.000000 -0.000001 0.000000 -0.000000 -0.000001 0.000000 -0.000000 -0.000000 0.000000 0.000000 -0.000000 0.000000 -0.000000 -0.000000 0.000000 0.000000 -0.000002 -0.000000 -0.000000 1.190916 15.410189 14.662316 13.008042 27.334163 58.942367 0.000008 6.776993 -0.000005 -20.285243 0.034972 6.614053 -1.667292 -0.164755 -4.225976 12.703387 -29.821914 -16.105704 -0.000000 -0.000001 0.000001 0.029978 1.254264 6.847394 0.213712 -1.396000 17.406742 0.000001 -0.000002 -0.000004 -0.135030 -2.210436 15.008133 0.214299 -1.397853 17.430561 -0.000000 0.000001 0.000002 0.034797 -3.088408 20.482981 0.308865 -1.669369 20.962846 0.000001 0.000002 0.000000 0.749124 -4.904559 26.529179 0.216164 -1.403809 17.507180 -0.000002 0.000005 0.000002 0.000001 0.000000 0.000001 0.000001 0.000001 0.000001 0.000001 0.000000 0.000001 0.000004 0.000001 -0.000001 0.000004 0.000001 -0.000001 0.000004 0.000001 -0.000001 0.000005 0.000001 -0.000001 -0.000000 -0.000000 0.000000 -0.000000 -0.000000 0.000000 -0.000000 -0.000000 0.000000 -0.000000 -0.000000 0.000000 -0.000000 -0.000000 0.000000 -0.000000 -0.000000 0.000000 -0.000000 -0.000000 0.000000 0.000000 -0.000000 -0.000000 0.000000 -0.000000 -0.000000 
